<?xml version="1.0" encoding="UTF-8"?>
<!DOCTYPE svg PUBLIC "-//W3C//DTD SVG 1.1//EN" "http://www.w3.org/Graphics/SVG/1.1/DTD/svg11.dtd">
<svg xmlns="http://www.w3.org/2000/svg" version="1.1" width="577px" height="433px" style="shape-rendering:geometricPrecision; text-rendering:geometricPrecision; image-rendering:optimizeQuality; fill-rule:evenodd; clip-rule:evenodd" xmlns:xlink="http://www.w3.org/1999/xlink">
<g><path style="opacity:1" fill="#8066f7" d="M 416.5,72.5 C 419.331,73.0787 421.664,74.412 423.5,76.5C 422.015,130.992 421.349,185.659 421.5,240.5C 421.5,276.173 422.167,311.506 423.5,346.5C 418.93,349.616 413.93,351.95 408.5,353.5C 406.502,260.173 405.836,166.506 406.5,72.5C 409.833,72.5 413.167,72.5 416.5,72.5 Z"/></g>
<g><path style="opacity:1" fill="#8767f3" d="M 416.5,72.5 C 413.167,72.5 409.833,72.5 406.5,72.5C 405.836,166.506 406.502,260.173 408.5,353.5C 403.831,355.579 398.831,356.579 393.5,356.5C 393.344,263.003 393.344,169.337 393.5,75.5C 400.847,71.7063 408.514,70.7063 416.5,72.5 Z"/></g>
<g><path style="opacity:1" fill="#8c67ef" d="M 387.5,75.5 C 389.5,75.5 391.5,75.5 393.5,75.5C 393.344,169.337 393.344,263.003 393.5,356.5C 390.375,357.479 387.042,357.813 383.5,357.5C 381.5,357.5 379.5,357.5 377.5,357.5C 378.248,263.835 378.582,170.169 378.5,76.5C 381.713,76.81 384.713,76.4767 387.5,75.5 Z"/></g>
<g><path style="opacity:1" fill="#9468eb" d="M 387.5,75.5 C 384.713,76.4767 381.713,76.81 378.5,76.5C 378.582,170.169 378.248,263.835 377.5,357.5C 373.833,357.5 370.167,357.5 366.5,357.5C 366.5,312.167 366.5,266.833 366.5,221.5C 375.56,203.6 378.726,184.6 376,164.5C 372.705,147.565 364.538,133.565 351.5,122.5C 350.877,107.923 351.544,93.5894 353.5,79.5C 364.722,77.3474 376.055,76.0141 387.5,75.5 Z"/></g>
<g><path style="opacity:1" fill="#7b68fb" d="M 423.5,76.5 C 430.876,83.2386 435.71,91.5719 438,101.5C 441.16,122.707 442.66,144.04 442.5,165.5C 441.504,208.163 440.67,250.83 440,293.5C 440.134,309.842 437.967,325.842 433.5,341.5C 430.423,343.705 427.09,345.372 423.5,346.5C 422.167,311.506 421.5,276.173 421.5,240.5C 421.349,185.659 422.015,130.992 423.5,76.5 Z"/></g>
<g><path style="opacity:1" fill="#a069e4" d="M 353.5,79.5 C 351.544,93.5894 350.877,107.923 351.5,122.5C 347.304,119.241 342.97,116.241 338.5,113.5C 337.525,103.249 337.192,92.9154 337.5,82.5C 342.754,81.2496 348.087,80.2496 353.5,79.5 Z"/></g>
<g><path style="opacity:0.997" fill="#cc72ce" d="M 242.5,84.5 C 258.342,84.1704 274.009,84.5037 289.5,85.5C 282.833,85.5 276.167,85.5 269.5,85.5C 269.5,90.8333 269.5,96.1667 269.5,101.5C 276.687,101.175 283.687,101.509 290.5,102.5C 259.833,102.5 229.167,102.5 198.5,102.5C 203.305,101.513 208.305,101.179 213.5,101.5C 222.5,101.5 231.5,101.5 240.5,101.5C 239.955,95.5368 240.621,89.8701 242.5,84.5 Z"/></g>
<g><path style="opacity:1" fill="#d56bc4" d="M 242.5,84.5 C 240.621,89.8701 239.955,95.5368 240.5,101.5C 231.5,101.5 222.5,101.5 213.5,101.5C 213.334,96.8215 213.501,92.1548 214,87.5C 214.995,86.9341 215.828,86.2674 216.5,85.5C 225.133,84.6228 233.8,84.2895 242.5,84.5 Z"/></g>
<g><path style="opacity:0.999" fill="#b66ad7" d="M 289.5,85.5 C 299.167,85.5 308.833,85.5 318.5,85.5C 315.375,86.4794 312.042,86.8128 308.5,86.5C 307.947,92.7921 308.614,98.7921 310.5,104.5C 303.921,103.053 297.254,102.387 290.5,102.5C 283.687,101.509 276.687,101.175 269.5,101.5C 269.5,96.1667 269.5,90.8333 269.5,85.5C 276.167,85.5 282.833,85.5 289.5,85.5 Z"/></g>
<g><path style="opacity:1" fill="#ab6ade" d="M 337.5,82.5 C 337.192,92.9154 337.525,103.249 338.5,113.5C 329.565,109.3 320.232,106.3 310.5,104.5C 308.614,98.7921 307.947,92.7921 308.5,86.5C 312.042,86.8128 315.375,86.4794 318.5,85.5C 324.803,84.373 331.137,83.373 337.5,82.5 Z"/></g>
<g><path style="opacity:1" fill="#e16cbd" d="M 216.5,85.5 C 215.828,86.2674 214.995,86.9341 214,87.5C 213.501,92.1548 213.334,96.8215 213.5,101.5C 208.305,101.179 203.305,101.513 198.5,102.5C 198.5,178.167 198.5,253.833 198.5,329.5C 206.5,329.5 214.5,329.5 222.5,329.5C 218.702,330.483 214.702,330.817 210.5,330.5C 210.24,337.557 210.573,344.557 211.5,351.5C 209.926,351.937 208.759,352.937 208,354.5C 203.774,351.802 199.274,349.802 194.5,348.5C 193.836,305.237 193.503,261.904 193.5,218.5C 193.505,174.956 194.172,131.622 195.5,88.5C 202.428,87.0921 209.428,86.0921 216.5,85.5 Z"/></g>
<g><path style="opacity:1" fill="#e56bba" d="M 195.5,88.5 C 194.172,131.622 193.505,174.956 193.5,218.5C 193.503,261.904 193.836,305.237 194.5,348.5C 191.833,348.167 189.167,347.833 186.5,347.5C 185.182,332.053 184.515,316.387 184.5,300.5C 184.979,258.001 185.312,215.501 185.5,173C 185.5,145.492 184.833,118.325 183.5,91.5C 187.239,89.8984 191.239,88.8984 195.5,88.5 Z"/></g>
<g><path style="opacity:1" fill="#ea6bb7" d="M 183.5,91.5 C 184.833,118.325 185.5,145.492 185.5,173C 185.312,215.501 184.979,258.001 184.5,300.5C 184.515,316.387 185.182,332.053 186.5,347.5C 178.981,347.825 171.648,347.492 164.5,346.5C 166.833,346.5 169.167,346.5 171.5,346.5C 172.164,262.493 171.497,178.827 169.5,95.5C 173.895,93.5646 178.562,92.2313 183.5,91.5 Z"/></g>
<g><path style="opacity:1" fill="#f06bb3" d="M 169.5,95.5 C 171.497,178.827 172.164,262.493 171.5,346.5C 169.167,346.5 166.833,346.5 164.5,346.5C 162.379,346.675 160.379,346.341 158.5,345.5C 158.5,263.833 158.5,182.167 158.5,100.5C 161.709,98.0659 165.376,96.3992 169.5,95.5 Z"/></g>
<g><path style="opacity:1" fill="#f86fb1" d="M 158.5,100.5 C 158.5,182.167 158.5,263.833 158.5,345.5C 149.08,342.251 141.913,336.251 137,327.5C 135.343,307.934 134.676,288.267 135,268.5C 135.333,264.5 135.667,260.5 136,256.5C 137.11,254.963 138.61,254.297 140.5,254.5C 140.267,249.966 141.1,245.632 143,241.5C 145.839,238.858 148.673,236.358 151.5,234C 148.129,221.016 147.795,208.016 150.5,195C 146.261,191.202 143.261,186.535 141.5,181C 139,165.833 136.5,150.666 134,135.5C 130.644,115.699 138.811,104.032 158.5,100.5 Z"/></g>
<g><path style="opacity:1" fill="#fefdfe" d="M 198.5,102.5 C 229.167,102.5 259.833,102.5 290.5,102.5C 297.254,102.387 303.921,103.053 310.5,104.5C 320.232,106.3 329.565,109.3 338.5,113.5C 342.97,116.241 347.304,119.241 351.5,122.5C 364.538,133.565 372.705,147.565 376,164.5C 378.726,184.6 375.56,203.6 366.5,221.5C 361.567,227.772 356.233,233.772 350.5,239.5C 345.991,241.919 341.658,244.586 337.5,247.5C 332.999,248.925 328.666,250.591 324.5,252.5C 320.126,253.344 315.793,254.344 311.5,255.5C 306.18,256.26 300.847,256.927 295.5,257.5C 293.5,257.5 291.5,257.5 289.5,257.5C 267.167,257.5 244.833,257.5 222.5,257.5C 222.5,281.5 222.5,305.5 222.5,329.5C 214.5,329.5 206.5,329.5 198.5,329.5C 198.5,253.833 198.5,178.167 198.5,102.5 Z"/></g>
<g><path style="opacity:1" fill="#e6b1e1" d="M 292.5,123.5 C 289.167,123.5 285.833,123.5 282.5,123.5C 278.167,123.5 273.833,123.5 269.5,123.5C 265.167,123.5 260.833,123.5 256.5,123.5C 251.167,123.5 245.833,123.5 240.5,123.5C 234.833,123.5 229.167,123.5 223.5,123.5C 223.5,161.167 223.5,198.833 223.5,236.5C 229.167,236.5 234.833,236.5 240.5,236.5C 245.5,236.5 250.5,236.5 255.5,236.5C 260.167,236.5 264.833,236.5 269.5,236.5C 273.833,236.5 278.167,236.5 282.5,236.5C 284.5,236.5 286.5,236.5 288.5,236.5C 266.673,237.497 244.673,237.831 222.5,237.5C 222.5,199.167 222.5,160.833 222.5,122.5C 246.006,122.169 269.339,122.502 292.5,123.5 Z"/></g>
<g><path style="opacity:1" fill="#d26ac5" d="M 240.5,123.5 C 240.5,161.167 240.5,198.833 240.5,236.5C 234.833,236.5 229.167,236.5 223.5,236.5C 223.5,198.833 223.5,161.167 223.5,123.5C 229.167,123.5 234.833,123.5 240.5,123.5 Z"/></g>
<g><path style="opacity:1" fill="#ca6aca" d="M 240.5,123.5 C 245.833,123.5 251.167,123.5 256.5,123.5C 256.468,161.17 256.135,198.837 255.5,236.5C 250.5,236.5 245.5,236.5 240.5,236.5C 240.5,198.833 240.5,161.167 240.5,123.5 Z"/></g>
<g><path style="opacity:1" fill="#c369ce" d="M 256.5,123.5 C 260.833,123.5 265.167,123.5 269.5,123.5C 269.5,161.167 269.5,198.833 269.5,236.5C 264.833,236.5 260.167,236.5 255.5,236.5C 256.135,198.837 256.468,161.17 256.5,123.5 Z"/></g>
<g><path style="opacity:1" fill="#be68d1" d="M 269.5,123.5 C 273.833,123.5 278.167,123.5 282.5,123.5C 282.5,161.167 282.5,198.833 282.5,236.5C 278.167,236.5 273.833,236.5 269.5,236.5C 269.5,198.833 269.5,161.167 269.5,123.5 Z"/></g>
<g><path style="opacity:1" fill="#b869d5" d="M 282.5,123.5 C 285.833,123.5 289.167,123.5 292.5,123.5C 293.5,123.5 294.5,123.5 295.5,123.5C 295.5,160.833 295.5,198.167 295.5,235.5C 293.393,236.468 291.059,236.802 288.5,236.5C 286.5,236.5 284.5,236.5 282.5,236.5C 282.5,198.833 282.5,161.167 282.5,123.5 Z"/></g>
<g><path style="opacity:1" fill="#b269d9" d="M 295.5,123.5 C 300.913,124.25 306.246,125.25 311.5,126.5C 311.168,162.004 311.502,197.337 312.5,232.5C 307.127,234.452 301.46,235.452 295.5,235.5C 295.5,198.167 295.5,160.833 295.5,123.5 Z"/></g>
<g><path style="opacity:1" fill="#ab68dd" d="M 311.5,126.5 C 316.895,127.738 321.895,129.738 326.5,132.5C 325.167,147.986 324.501,163.819 324.5,180C 324.501,196.181 325.167,212.014 326.5,227.5C 322.183,229.94 317.517,231.607 312.5,232.5C 311.502,197.337 311.168,162.004 311.5,126.5 Z"/></g>
<g><path style="opacity:1" fill="#a269e3" d="M 326.5,132.5 C 344.594,142.503 353.26,158.003 352.5,179C 353.843,200.756 345.177,216.923 326.5,227.5C 325.167,212.014 324.501,196.181 324.5,180C 324.501,163.819 325.167,147.986 326.5,132.5 Z"/></g>
<g><path style="opacity:1" fill="#9868e8" d="M 366.5,221.5 C 366.5,266.833 366.5,312.167 366.5,357.5C 361.167,357.5 355.833,357.5 350.5,357.5C 350.5,318.167 350.5,278.833 350.5,239.5C 356.233,233.772 361.567,227.772 366.5,221.5 Z"/></g>
<g><path style="opacity:1" fill="#9f68e4" d="M 350.5,239.5 C 350.5,278.833 350.5,318.167 350.5,357.5C 346.167,357.5 341.833,357.5 337.5,357.5C 337.5,320.833 337.5,284.167 337.5,247.5C 341.658,244.586 345.991,241.919 350.5,239.5 Z"/></g>
<g><path style="opacity:1" fill="#a668e0" d="M 337.5,247.5 C 337.5,284.167 337.5,320.833 337.5,357.5C 333.167,357.5 328.833,357.5 324.5,357.5C 324.5,322.5 324.5,287.5 324.5,252.5C 328.666,250.591 332.999,248.925 337.5,247.5 Z"/></g>
<g><path style="opacity:1" fill="#ad6add" d="M 324.5,252.5 C 324.5,287.5 324.5,322.5 324.5,357.5C 328.833,357.5 333.167,357.5 337.5,357.5C 341.833,357.5 346.167,357.5 350.5,357.5C 355.833,357.5 361.167,357.5 366.5,357.5C 370.167,357.5 373.833,357.5 377.5,357.5C 379.5,357.5 381.5,357.5 383.5,357.5C 359.006,358.498 334.339,358.831 309.5,358.5C 308.167,345.851 307.501,332.851 307.5,319.5C 307.705,298.496 308.039,277.496 308.5,256.5C 309.791,256.737 310.791,256.404 311.5,255.5C 315.793,254.344 320.126,253.344 324.5,252.5 Z"/></g>
<g><path style="opacity:1" fill="#b369d8" d="M 311.5,255.5 C 310.791,256.404 309.791,256.737 308.5,256.5C 308.039,277.496 307.705,298.496 307.5,319.5C 307.501,332.851 308.167,345.851 309.5,358.5C 304.974,360.143 300.307,360.477 295.5,359.5C 295.5,325.5 295.5,291.5 295.5,257.5C 300.847,256.927 306.18,256.26 311.5,255.5 Z"/></g>
<g><path style="opacity:1" fill="#e3a8de" d="M 289.5,257.5 C 287.393,258.468 285.059,258.802 282.5,258.5C 278.167,258.5 273.833,258.5 269.5,258.5C 264.833,258.5 260.167,258.5 255.5,258.5C 250.5,258.5 245.5,258.5 240.5,258.5C 235.833,258.5 231.167,258.5 226.5,258.5C 225.5,258.5 224.5,258.5 223.5,258.5C 223.831,282.339 223.498,306.006 222.5,329.5C 222.5,305.5 222.5,281.5 222.5,257.5C 244.833,257.5 267.167,257.5 289.5,257.5 Z"/></g>
<g><path style="opacity:0.998" fill="#d86ec4" d="M 226.5,258.5 C 226.182,289.21 226.515,319.877 227.5,350.5C 226.21,351.058 225.377,352.058 225,353.5C 224.667,355.833 224.333,358.167 224,360.5C 223.085,359.672 222.419,358.672 222,357.5C 221.667,354.833 221.333,352.167 221,349.5C 218.404,352.757 216.738,356.423 216,360.5C 214.833,358 213,356.167 210.5,355C 211.337,353.989 211.67,352.822 211.5,351.5C 210.573,344.557 210.24,337.557 210.5,330.5C 214.702,330.817 218.702,330.483 222.5,329.5C 223.498,306.006 223.831,282.339 223.5,258.5C 224.5,258.5 225.5,258.5 226.5,258.5 Z"/></g>
<g><path style="opacity:1" fill="#d16ac6" d="M 226.5,258.5 C 231.167,258.5 235.833,258.5 240.5,258.5C 240.5,292.167 240.5,325.833 240.5,359.5C 238.448,358.29 236.282,357.29 234,356.5C 231.849,356.643 230.182,357.643 229,359.5C 227.851,356.607 227.351,353.607 227.5,350.5C 226.515,319.877 226.182,289.21 226.5,258.5 Z"/></g>
<g><path style="opacity:0.999" fill="#cb6aca" d="M 240.5,258.5 C 245.5,258.5 250.5,258.5 255.5,258.5C 254.851,292.056 255.518,325.389 257.5,358.5C 255.906,358.92 254.406,359.586 253,360.5C 251.155,359.244 249.155,358.244 247,357.5C 245.333,358.5 243.667,359.5 242,360.5C 241.235,360.43 240.735,360.097 240.5,359.5C 240.5,325.833 240.5,292.167 240.5,258.5 Z"/></g>
<g><path style="opacity:1" fill="#c469ce" d="M 255.5,258.5 C 260.167,258.5 264.833,258.5 269.5,258.5C 269.669,292.174 269.335,325.841 268.5,359.5C 270.167,359.5 271.833,359.5 273.5,359.5C 271.022,360.164 268.355,360.497 265.5,360.5C 262.41,360.478 259.743,359.812 257.5,358.5C 255.518,325.389 254.851,292.056 255.5,258.5 Z"/></g>
<g><path style="opacity:0.999" fill="#be69d1" d="M 269.5,258.5 C 273.833,258.5 278.167,258.5 282.5,258.5C 282.5,291.833 282.5,325.167 282.5,358.5C 286.042,358.187 289.375,358.521 292.5,359.5C 286.167,359.5 279.833,359.5 273.5,359.5C 271.833,359.5 270.167,359.5 268.5,359.5C 269.335,325.841 269.669,292.174 269.5,258.5 Z"/></g>
<g><path style="opacity:1" fill="#b869d5" d="M 289.5,257.5 C 291.5,257.5 293.5,257.5 295.5,257.5C 295.5,291.5 295.5,325.5 295.5,359.5C 294.5,359.5 293.5,359.5 292.5,359.5C 289.375,358.521 286.042,358.187 282.5,358.5C 282.5,325.167 282.5,291.833 282.5,258.5C 285.059,258.802 287.393,258.468 289.5,257.5 Z"/></g>
<g><path style="opacity:0.082" fill="#f7e1f2" d="M 220.5,345.5 C 219.662,345.842 219.328,346.508 219.5,347.5C 218.224,346.614 218.224,345.614 219.5,344.5C 220.107,344.624 220.44,344.957 220.5,345.5 Z"/></g>
</svg>
